<svg width="844" height="196" viewBox="0 0 844 196" fill="none" xmlns="http://www.w3.org/2000/svg">
<path d="M466.28 105.43L476.63 80.33H486V114.8H479.69V86.56L468.13 114.97H463.71L452.25 86.7999V114.8H446.25V80.33H456L466.28 105.43Z" fill="black"/>
<path d="M500.76 80.33H507.32V114.8H500.76V80.33Z" fill="black"/>
<path d="M545.63 107.71H528.25L525.09 114.8H518.53L534 80.1801H540.17L555.71 114.8H548.77L545.63 107.71ZM543.15 102.08L536.94 88.14L530.72 102.08H543.15Z" fill="black"/>
<path d="M582.78 97.56C582.78 87.46 590.06 79.74 600.16 79.74C610.79 79.74 615.31 86.88 616.23 90.91H609.53C608.579 89.2822 607.207 87.9409 605.558 87.0275C603.909 86.1141 602.044 85.6624 600.16 85.72C593.7 85.72 589.53 91.11 589.53 97.56C589.53 104.01 593.7 109.41 600.16 109.41C606.16 109.41 608.75 105.96 609.63 104.17H616.23C615.46 107.81 611.23 115.38 600.16 115.38C590.06 115.38 582.78 107.66 582.78 97.56Z" fill="black"/>
<path d="M651.39 107.71H634L630.84 114.8H624.28L639.77 80.1801H646L661.54 114.8H654.6L651.39 107.71ZM648.91 102.08L642.7 88.14L636.48 102.08H648.91Z" fill="black"/>
<path d="M672.66 80.33H691.94C699.51 80.33 703.73 83.8199 703.73 90.6199C703.73 95.2799 701.36 98.62 696.94 99.94L705.05 114.8H698.15L690.33 100.62H679.16V114.8H672.66V80.33ZM679.16 86.1V94.94H691.4C695.14 94.94 697.03 93.4899 697.03 90.6199C697.03 87.4599 695.14 86.1 691.4 86.1H679.16Z" fill="black"/>
<path d="M717.14 80.33H745.06V85.9599H723.64V93.8299H736.41V99.56H723.64V109.07H747V114.85H717.14V80.33Z" fill="black"/>
<path d="M126.65 119.27C125.23 121.744 123.336 123.913 121.077 125.654C118.818 127.395 116.237 128.674 113.484 129.417C110.73 130.16 107.856 130.353 105.028 129.984C102.2 129.616 99.4716 128.694 97 127.27L126.65 75.9C128.557 72.6015 131.298 69.8626 134.597 67.9582C137.897 66.0537 141.64 65.0508 145.45 65.05C149.26 65.0518 153.002 66.0552 156.302 67.9595C159.601 69.8638 162.342 72.6022 164.25 75.9L193.89 127.27C191.418 128.694 188.69 129.616 185.862 129.984C183.034 130.353 180.16 130.16 177.406 129.417C174.653 128.674 172.072 127.395 169.813 125.654C167.554 123.913 165.66 121.744 164.24 119.27L147.33 89.97C147.14 89.6398 146.866 89.3656 146.536 89.1749C146.206 88.9842 145.831 88.8838 145.45 88.8838C145.069 88.8838 144.694 88.9842 144.364 89.1749C144.034 89.3656 143.76 89.6398 143.57 89.97L126.65 119.27Z" fill="#00F096"/>
<path d="M208.12 108.43L218.78 89.97C218.969 89.6396 219.242 89.365 219.571 89.174C219.901 88.983 220.274 88.8824 220.655 88.8824C221.036 88.8824 221.41 88.983 221.739 89.174C222.068 89.365 222.341 89.6396 222.53 89.97L239.45 119.27C240.87 121.744 242.764 123.913 245.023 125.654C247.282 127.395 249.863 128.674 252.617 129.417C255.37 130.16 258.244 130.353 261.072 129.984C263.9 129.616 266.628 128.694 269.1 127.27L239.45 75.9C237.546 72.6016 234.807 69.8625 231.509 67.958C228.21 66.0534 224.469 65.0505 220.66 65.0501C216.85 65.0488 213.106 66.0508 209.806 67.9555C206.506 69.8601 203.765 72.6002 201.86 75.9L195.59 86.7601L208.12 108.43Z" fill="#00F096"/>
<path d="M259.92 67.91C263.221 66.001 266.967 64.9972 270.78 65C274.59 65.0018 278.332 66.0051 281.632 67.9095C284.931 69.8138 287.672 72.5522 289.58 75.85L319.22 127.22C316.748 128.644 314.02 129.566 311.192 129.934C308.363 130.303 305.49 130.11 302.736 129.367C299.983 128.624 297.402 127.345 295.143 125.604C292.884 123.863 290.99 121.694 289.57 119.22L259.92 67.91Z" fill="black"/>
<path d="M333.61 108.43L344.26 89.97C344.45 89.6398 344.724 89.3656 345.054 89.1749C345.385 88.9842 345.759 88.8838 346.14 88.8838C346.521 88.8838 346.896 88.9842 347.226 89.1749C347.556 89.3656 347.83 89.6398 348.02 89.97L364.94 119.27C366.36 121.744 368.254 123.913 370.513 125.654C372.772 127.395 375.353 128.674 378.107 129.417C380.86 130.16 383.734 130.353 386.562 129.984C389.39 129.616 392.118 128.694 394.59 127.27L364.94 75.9C363.036 72.6016 360.297 69.8625 356.999 67.958C353.7 66.0534 349.959 65.0505 346.15 65.0501C342.34 65.0488 338.596 66.0508 335.296 67.9555C331.996 69.8601 329.255 72.6002 327.35 75.9L321.08 86.7601L333.61 108.43Z" fill="#00F0F0"/>
</svg>
