<svg width="744" height="395" viewBox="0 0 744 395" fill="none" xmlns="http://www.w3.org/2000/svg">
<path d="M240.49 285.6L250.93 260.26H260.39V295.06H254V266.53L242.33 295.21H237.87L226.32 266.82V295.1H220.25V260.3H230.1L240.49 285.6Z" fill="black"/>
<path d="M275.29 260.26H281.91V295.06H275.29V260.26Z" fill="black"/>
<path d="M320.59 287.9H303L299.81 295.06H293.2L308.83 260.11H315.06L330.74 295.06H323.74L320.59 287.9ZM318.09 282.22L311.81 268.15L305.54 282.22H318.09Z" fill="black"/>
<path d="M358.09 277.66C358.09 267.46 365.44 259.66 375.64 259.66C386.37 259.66 390.93 266.87 391.86 270.93H385.1C384.14 269.286 382.755 267.932 381.09 267.01C379.425 266.088 377.542 265.632 375.64 265.69C369.12 265.69 364.9 271.13 364.9 277.69C364.9 284.25 369.12 289.69 375.64 289.69C381.64 289.69 384.31 286.21 385.2 284.4H391.86C391.08 288.07 386.81 295.72 375.64 295.72C365.44 295.65 358.09 287.82 358.09 277.66Z" fill="black"/>
<path d="M427.35 287.9H409.81L406.62 295.06H400L415.64 260.11H421.86L437.55 295.06H430.55L427.35 287.9ZM424.85 282.22L418.58 268.15L412.31 282.22H424.85Z" fill="black"/>
<path d="M448.83 260.26H468.29C475.93 260.26 480.2 263.79 480.2 270.65C480.2 275.36 477.8 278.65 473.34 280.06L481.52 295.06H474.52L466.63 280.75H455.39V295.06H448.83V260.26ZM455.39 266.09V275.01H467.75C471.52 275.01 473.43 273.54 473.43 270.65C473.43 267.46 471.52 266.09 467.75 266.09H455.39Z" fill="black"/>
<path d="M493.73 260.26H521.91V265.94H500.3V273.89H513.19V279.62H500.3V289.23H523.87V295.06H493.73V260.26Z" fill="black"/>
<path d="M191.84 180.07C189.684 183.802 186.814 187.074 183.393 189.697C179.973 192.32 176.069 194.243 171.906 195.358C167.742 196.472 163.399 196.755 159.126 196.191C154.852 195.627 150.732 194.227 147 192.07L191.83 114.4C194.71 109.41 198.852 105.267 203.841 102.386C208.83 99.5058 214.489 97.9895 220.25 97.99C226.012 97.9898 231.673 99.5061 236.663 102.387C241.654 105.267 245.798 109.41 248.68 114.4L293.51 192.07C289.778 194.227 285.658 195.627 281.384 196.191C277.111 196.755 272.768 196.472 268.604 195.358C264.441 194.243 260.537 192.32 257.117 189.697C253.696 187.074 250.826 183.802 248.67 180.07L223.09 135.75C222.802 135.252 222.388 134.838 221.89 134.55C221.391 134.262 220.826 134.111 220.25 134.111C219.674 134.111 219.109 134.262 218.61 134.55C218.112 134.838 217.698 135.252 217.41 135.75L191.84 180.07Z" fill="black"/>
<path d="M315 163.67L331.12 135.75C331.41 135.252 331.825 134.838 332.324 134.551C332.823 134.264 333.389 134.112 333.965 134.112C334.541 134.112 335.107 134.264 335.607 134.551C336.106 134.838 336.521 135.252 336.81 135.75L362.38 180.07C364.536 183.802 367.407 187.074 370.827 189.697C374.247 192.32 378.151 194.243 382.315 195.358C386.479 196.472 390.821 196.755 395.095 196.191C399.368 195.627 403.488 194.227 407.22 192.07L362.39 114.4C359.511 109.418 355.372 105.281 350.389 102.402C345.406 99.5239 339.755 98.0058 334 98C328.238 97.9978 322.576 99.5132 317.586 102.394C312.595 105.275 308.451 109.419 305.57 114.41L296.07 130.82L315 163.67Z" fill="black"/>
<path d="M393.359 102.4C398.347 99.5153 404.008 97.9976 409.769 98C415.53 98.0015 421.188 99.5187 426.177 102.399C431.165 105.28 435.308 109.422 438.189 114.41L482.999 192.08C479.267 194.237 475.147 195.637 470.874 196.201C466.6 196.765 462.258 196.482 458.094 195.368C453.93 194.253 450.026 192.33 446.606 189.707C443.186 187.084 440.315 183.812 438.159 180.08L393.359 102.4Z" fill="black"/>
<path d="M504.78 163.67L520.9 135.75C521.188 135.252 521.602 134.838 522.101 134.55C522.599 134.262 523.164 134.111 523.74 134.111C524.316 134.111 524.881 134.262 525.38 134.55C525.878 134.838 526.292 135.252 526.58 135.75L552.16 180.07C554.316 183.802 557.186 187.074 560.607 189.697C564.027 192.32 567.931 194.243 572.095 195.358C576.258 196.472 580.601 196.755 584.874 196.191C589.148 195.627 593.268 194.227 597 192.07L552.17 114.4C549.287 109.411 545.143 105.268 540.153 102.388C535.162 99.5076 529.502 97.9908 523.74 97.99C517.978 97.9908 512.318 99.5076 507.328 102.388C502.337 105.268 498.193 109.411 495.31 114.4L485.83 130.82L504.78 163.67Z" fill="black"/>
</svg>
