<svg width="2085" height="742" viewBox="0 0 2085 742" fill="none" xmlns="http://www.w3.org/2000/svg">
<path d="M954.219 392.31C1001.23 392.31 1027.73 418.037 1027.73 465.009V582.621H994.648V565.016C994.635 560.106 994.88 555.198 995.383 550.314H994.648C989.347 561.531 980.908 570.972 970.354 577.494C959.801 584.017 947.584 587.342 935.181 587.068C903.242 587.068 872.037 567.625 872.037 530.541C872.037 469.052 952.785 466.479 983.989 466.479H992.075V463.171C992.075 432.702 974.838 422.411 951.353 422.411C922.685 422.411 899.565 440.421 899.565 440.421L884.864 414.362C905.031 399.788 929.338 392.059 954.219 392.31ZM1399.2 392.328C1454.62 392.328 1499.43 433.088 1499.43 489.248C1499.43 545.408 1454.62 586.903 1399.2 586.903C1343.77 586.903 1299.01 545.812 1299.01 489.248C1299.01 432.684 1343.77 392.328 1399.2 392.328ZM1115.78 399.309H1160.59V427.94H1115.78V510.562C1115.78 547.61 1141.88 552.389 1155.44 552.389C1158.28 552.423 1161.11 552.177 1163.9 551.653V583.226C1159.75 583.737 1155.58 583.982 1151.4 583.96C1127.55 583.96 1080.17 576.609 1080.17 514.605V427.94H1055.95V399.309H1081.27V345.722H1115.78V399.309ZM830.545 525.466C830.545 547.885 839.367 551.892 850.393 551.892C852.48 551.884 854.566 551.762 856.641 551.524V583.096C852.738 583.571 848.81 583.817 844.879 583.831C824.701 583.831 794.931 578.354 794.931 531.714V323.319H830.545V525.466ZM1885.71 392.328C1927.54 392.328 1947.02 416.218 1947.02 463.557V582.492H1911.33V471.275C1911.33 445.217 1906.18 424.635 1878.25 424.635C1852.19 424.635 1832.71 446.688 1826.1 472.011C1824.25 480.458 1823.4 489.093 1823.56 497.738V582.529H1787.84V471.275C1787.84 447.055 1784.16 424.635 1755.53 424.635C1728.37 424.635 1709.26 447.055 1702.27 473.48C1700.58 481.438 1699.84 489.569 1700.07 497.701V582.492H1664.49L1664.64 396.738H1699.15V421.363C1699.14 425.895 1698.88 430.423 1698.38 434.926H1699.15C1707.93 413.278 1733.99 392.328 1763.03 392.328C1794.2 392.328 1812.57 406.662 1818.82 434.559H1819.56C1825.58 422.079 1834.96 411.52 1846.65 404.062C1858.33 396.605 1871.85 392.543 1885.71 392.328ZM1276.29 321.495C1280.85 321.457 1285.4 321.826 1289.89 322.598V353.066C1286.86 352.548 1283.78 352.302 1280.7 352.331C1267.1 352.331 1241.78 356.742 1241.78 391.217V399.303H1285.88V427.934H1241.78V582.484H1206.53L1206.46 427.934H1183.34V399.303H1206.46V390.481C1206.46 329.177 1252.73 321.495 1276.29 321.495ZM683.707 323.319C731.083 323.319 765.227 355.259 765.227 404.436C765.226 453.612 731.082 486.653 683.707 486.653H625.342V582.471H588.992V323.319H683.707ZM1627.54 394.506C1630.6 394.526 1633.66 394.772 1636.69 395.241V430.488C1633.32 429.774 1629.88 429.404 1626.43 429.386C1603.68 429.386 1582.73 445.558 1574.28 473.086C1571.18 483.944 1569.7 495.204 1569.91 506.495V582.465H1534.22V396.711H1568.73V429.018C1568.73 433.683 1568.49 438.345 1568 442.984H1568.73C1577.15 415.823 1598.83 394.506 1627.54 394.506ZM983.291 493.383C956.461 493.383 908.02 495.221 908.02 528.63C908.02 543.588 919.781 558.253 942.898 558.253V558.363C973 558.363 992.442 526.792 992.442 499.264V493.383H983.291ZM1399.2 423.091C1363.95 423.091 1335.32 450.657 1335.32 489.248C1335.32 527.839 1364.32 556.066 1399.2 556.066C1434.45 556.066 1463.08 528.17 1463.08 489.248C1463.08 450.326 1434.45 423.091 1399.2 423.091ZM625.342 455.082H677.863C709.067 455.082 728.178 435.639 728.179 404.436C728.179 373.232 709.067 354.891 678.23 354.891H625.342V455.082ZM812.737 191.638C834.789 191.638 847.065 203.657 847.065 225.636V280.619H831.629V272.386C831.622 270.091 831.732 267.797 831.959 265.514H831.629C829.138 270.751 825.186 275.156 820.25 278.201C815.314 281.246 809.604 282.801 803.806 282.678C788.847 282.678 774.404 273.562 774.403 256.215C774.367 227.547 812.149 226.334 826.74 226.334H830.416V224.79C830.416 210.53 822.33 205.715 811.341 205.715C802.612 206.06 794.182 208.989 787.12 214.131L780.247 201.929C789.701 195.118 801.087 191.512 812.737 191.638ZM758.722 280.634H742.072V193.711H758.722V280.634ZM691.902 191.635C711.492 191.635 720.607 202.661 720.607 224.971V280.616H703.921V228.572C703.921 216.37 701.532 206.74 688.484 206.74C676.282 206.74 667.167 217.069 664.08 228.793C663.216 232.739 662.809 236.772 662.867 240.812V280.616H646.217V228.572C646.217 217.215 644.49 206.74 631.111 206.74C618.395 206.74 609.463 217.216 606.192 229.602C605.408 233.322 605.062 237.121 605.163 240.922V280.616H588.514V193.693H604.648V205.197C604.646 207.321 604.535 209.443 604.317 211.556H604.648C607.266 205.772 611.455 200.838 616.737 197.316C622.019 193.795 628.184 191.827 634.529 191.635C649.231 191.635 657.721 198.324 660.661 211.372H660.992C663.814 205.545 668.197 200.613 673.654 197.129C679.111 193.644 685.429 191.743 691.902 191.635ZM826.409 238.866C813.876 238.866 791.199 239.749 791.199 255.369C791.199 262.426 796.676 269.261 807.518 269.262C821.594 269.262 830.71 254.56 830.71 241.623V238.866H826.409ZM758.722 176.362H741.889V159.346H758.722V176.362Z" fill="#414748"/>
<path d="M207.08 455.273L248.281 479.089V526.869L207.08 550.649L165.879 526.649V479.089L207.08 455.309V455.273ZM207.08 423.223L138.093 463.028V542.673L207.08 582.478L276.067 542.673V463.028L207.08 423.187V423.223Z" fill="#26A570"/>
<path d="M360.391 455.273L401.592 479.089V526.869L360.391 550.649L319.153 526.649V479.089L360.391 455.309V455.273ZM360.391 423.223L291.404 463.028V542.673L360.391 582.478L429.341 542.673V463.028L360.391 423.187V423.223Z" fill="#1890FF"/>
<path d="M436.348 322.901L477.586 346.754V394.534L436.348 418.057L395.147 394.277V346.754L436.348 322.974V322.901ZM436.348 290.925L367.361 330.656V410.302L436.348 450.143L505.335 410.302V330.656L436.348 290.852V290.925Z" fill="#5F36DD"/>
<path d="M283.712 322.899L325.023 346.752V394.532L283.712 418.055L242.511 394.275V346.752L283.712 322.972V322.899ZM283.712 290.923L214.762 330.654V410.3L283.712 450.141L352.699 410.3V330.654L283.712 290.85V290.923Z" fill="#F03F44"/>
<path d="M207.408 190.593L248.609 214.483V262.263L207.408 285.786L166.17 261.969V214.483L207.408 190.593ZM207.408 158.544L138.421 198.348V277.994L207.408 317.835L276.358 277.994V198.348L207.408 158.544Z" fill="#FF9933"/>
</svg>
