<svg width="376" height="128" viewBox="0 0 376 128" fill="none" xmlns="http://www.w3.org/2000/svg">
<path d="M209.4 39.6584C223.299 39.6584 234.567 50.792 234.567 64.5264C234.567 78.26 223.299 89.3937 209.4 89.3937H206.74V108.803H193.644V76.4545H209.4C216.067 76.4545 221.472 71.1135 221.472 64.5264C221.472 57.9379 216.067 52.5976 209.4 52.5976H200.192V39.6584H209.4ZM137.595 19.1973V38.6064H140.255C154.155 38.6064 165.422 49.7401 165.422 63.4737C165.422 77.0705 154.379 88.1188 140.671 88.3382L140.255 88.3417H131.048V75.4018H140.255C146.923 75.4018 152.327 70.0622 152.327 63.4737C152.327 56.9614 147.046 51.6683 140.484 51.5477L140.255 51.5456H124.5V19.1973H137.595ZM251.5 74.9362V88.3417H238.094V74.9362H251.5ZM184.472 38.2473V88.3417H171.067V38.2473H184.472Z" fill="#D9291C"/>
</svg>
