<svg width="376" height="128" viewBox="0 0 376 128" fill="none" xmlns="http://www.w3.org/2000/svg">
<path d="M214.879 47.278C212.376 49.8446 212.376 54.0041 214.879 56.5707L223.662 65.5696C224.23 66.2176 226.612 69.2337 225.737 73.3123C225.693 73.5221 225.732 73.7508 225.891 73.9142C226.127 74.1555 226.51 74.1555 226.745 73.9142L229.276 71.3207L232.512 68.0028C235.735 64.7041 235.735 59.3549 232.512 56.0546L223.948 47.278C221.444 44.7146 217.383 44.7146 214.879 47.278Z" fill="#0099DE"/>
<path d="M267.49 101.213C269.994 98.6496 269.994 94.4885 267.49 91.9235L258.705 82.9245C258.139 82.275 255.757 79.2605 256.63 75.1803C256.676 74.9705 256.635 74.7418 256.477 74.5784C256.24 74.3384 255.857 74.3384 255.622 74.5784L253.093 77.172L249.855 80.4914C246.634 83.7886 246.634 89.1377 249.855 92.4381L258.421 101.213C260.924 103.78 264.984 103.78 267.49 101.213Z" fill="#0099DE"/>
<path d="M214.853 91.9503L258.465 47.2939C259.73 46.0011 261.402 45.3626 263.066 45.3833C264.684 45.4058 266.291 46.0408 267.516 47.2987C268.759 48.5693 269.38 50.248 269.382 51.9252C269.385 53.6103 268.762 55.2938 267.515 56.5708L223.903 101.227C222.657 102.502 221.017 103.141 219.377 103.138C217.736 103.138 216.094 102.499 214.85 101.226C213.639 99.9788 213.015 98.3477 212.985 96.7086C212.956 94.987 213.579 93.2574 214.853 91.9503Z" fill="#0099DE"/>
<path d="M101.576 58.0398H97.246C94.3488 58.0398 92 55.6336 92 52.6668C92 49.7 94.3488 47.2954 97.246 47.2954H101.576V43.2502C101.576 36.9735 103.132 32.2945 106.042 29.315C108.949 26.3355 113 24.8457 118.4 24.8457C120.661 24.8457 122.563 25.0155 124.259 25.3016C126.76 25.7207 128.578 27.9666 128.578 30.5665C128.575 33.6922 125.969 36.1508 122.928 35.8792C122.373 35.8315 121.802 35.8031 121.205 35.8031C116.426 35.8031 113.933 38.4633 113.933 44.316V47.4003H123.28C126.147 47.4003 128.472 49.7827 128.472 52.7209C128.472 55.6592 126.147 58.0399 123.28 58.0399H114.141V96.715C114.141 100.268 111.328 103.15 107.86 103.15C104.389 103.15 101.576 100.268 101.576 96.715V58.0398Z" fill="#0099DE"/>
<path d="M141.736 25.4824C145.205 25.4824 148.018 28.3651 148.018 31.918V96.713C148.018 100.267 145.205 103.15 141.736 103.15C138.266 103.15 135.453 100.267 135.453 96.713V31.918C135.453 28.3651 138.266 25.4824 141.736 25.4824Z" fill="#0099DE"/>
<path d="M197.638 69.8505C197.963 69.8505 198.222 69.5565 198.18 69.2247C197.177 61.2279 192.433 55.0608 184.335 55.0608C176.841 55.0608 171.521 60.8277 170.2 69.2056C170.15 69.5392 170.41 69.8505 170.739 69.8505H197.638ZM157.647 73.999V73.2302C157.647 55.6707 173.042 41.8245 189.896 45.0248C203.724 47.6518 210.712 60.356 210.712 74.7438C210.711 76.7434 209.129 78.3602 207.178 78.3602L170.857 78.3619C170.521 78.3619 170.259 78.6828 170.319 79.0209C171.869 87.7562 178.093 92.6193 185.996 92.6193C190.647 92.6193 194.281 91.2678 197.67 88.7139C199.643 87.2225 202.338 87.2718 204.17 88.9363C206.492 91.0471 206.493 94.8222 204.092 96.833C199.39 100.769 193.426 103.153 185.79 103.153C169.901 103.153 157.647 91.3409 157.647 73.999Z" fill="#0099DE"/>
<path d="M280.984 96.5842C280.984 96.0268 280.583 95.7472 279.784 95.7472H278.359V97.5292H279.728C280.128 97.5292 280.437 97.4513 280.654 97.2942C280.873 97.1371 280.984 96.902 280.984 96.5842ZM280.903 99.4399C280.903 99.0717 280.865 98.7951 280.789 98.6077C280.711 98.4218 280.583 98.298 280.4 98.2251C280.221 98.1535 279.957 98.1202 279.613 98.1202H278.359V100.301H277.725V95.1453H279.923C280.439 95.1453 280.849 95.2647 281.156 95.506C281.462 95.7441 281.616 96.092 281.616 96.5494C281.616 96.8812 281.54 97.1514 281.38 97.3642C281.221 97.5772 280.99 97.7217 280.683 97.8027V97.8252C280.99 97.9188 281.207 98.0697 281.336 98.2745C281.461 98.4794 281.524 98.8225 281.524 99.3006C281.524 99.7881 281.58 100.122 281.687 100.303H281.053C281.006 100.236 280.969 100.117 280.943 99.9547C280.916 99.7926 280.903 99.6212 280.903 99.4399ZM283.368 97.6835C283.368 96.9831 283.201 96.3351 282.865 95.738C282.534 95.1408 282.077 94.6611 281.502 94.3101C280.925 93.9558 280.286 93.7797 279.591 93.7797C278.914 93.7797 278.29 93.9529 277.714 94.3037C277.137 94.6531 276.681 95.1265 276.343 95.7268C276.006 96.3224 275.836 96.9767 275.836 97.6835C275.836 98.3839 276.003 99.0335 276.335 99.6323C276.673 100.231 277.126 100.704 277.702 101.06C278.275 101.411 278.909 101.589 279.602 101.589C280.291 101.589 280.925 101.411 281.502 101.06C282.077 100.704 282.534 100.231 282.865 99.6323C283.201 99.0335 283.368 98.3839 283.368 97.6835ZM275.202 97.6835C275.202 96.8576 275.405 96.0985 275.808 95.4092C276.21 94.7152 276.747 94.1719 277.424 93.7748C278.101 93.3778 278.832 93.1777 279.613 93.1777C280.404 93.1777 281.136 93.3794 281.806 93.786C282.48 94.188 283.013 94.7358 283.407 95.4251C283.803 96.1144 284 96.8656 284 97.6835C284 98.4697 283.808 99.2098 283.425 99.9039C283.043 100.595 282.516 101.149 281.849 101.568C281.179 101.983 280.434 102.191 279.613 102.191C278.806 102.191 278.068 101.987 277.396 101.583C276.724 101.179 276.191 100.631 275.796 99.9388C275.4 99.2464 275.202 98.4951 275.202 97.6835Z" fill="#0099DE"/>
</svg>
