<svg width="376" height="128" viewBox="0 0 376 128" fill="none" xmlns="http://www.w3.org/2000/svg">
<path d="M171.501 87.0415C170.695 88.1694 169.608 89.0671 168.348 89.6458C167.128 90.1712 165.812 90.4345 164.484 90.4186C163.128 90.4326 161.782 90.186 160.519 89.6922C159.358 89.2397 158.304 88.5471 157.428 87.6597C156.562 86.7714 155.879 85.7209 155.419 84.5686C154.461 82.0311 154.461 79.2312 155.419 76.6937C155.88 75.5419 156.563 74.4917 157.428 73.6026C158.308 72.7179 159.36 72.0234 160.519 71.5624C161.777 71.0453 163.124 70.7826 164.484 70.7896C165.713 70.777 166.934 71.0027 168.077 71.4542C169.233 71.9387 170.243 72.7165 171.006 73.7107L169.561 74.9008C169.012 74.054 168.228 73.3854 167.305 72.9766C166.418 72.575 165.457 72.3669 164.484 72.3661C163.345 72.3478 162.214 72.5635 161.161 72.9998C160.208 73.3998 159.348 73.9916 158.634 74.7386C157.929 75.4921 157.385 76.3807 157.034 77.3506C156.282 79.4465 156.282 81.7386 157.034 83.8344C157.385 84.8043 157.929 85.6929 158.634 86.4465C159.348 87.1934 160.208 87.7853 161.161 88.1852C162.214 88.6215 163.345 88.8372 164.484 88.8189C164.988 88.8175 165.491 88.7605 165.983 88.6489C166.505 88.5316 167.011 88.3526 167.49 88.1157C167.989 87.875 168.459 87.5767 168.889 87.227C169.347 86.856 169.743 86.4153 170.064 85.9209L171.501 87.0415Z" fill="#006172"/>
<path d="M175.272 80.6349C175.264 81.7387 175.452 82.8353 175.829 83.8729C176.182 84.8416 176.726 85.7297 177.428 86.485C178.142 87.2319 179.003 87.8238 179.955 88.2237C182.093 89.0687 184.472 89.0687 186.609 88.2237C187.561 87.8256 188.419 87.2334 189.129 86.485C189.828 85.7412 190.375 84.8667 190.736 83.9115C191.478 81.814 191.478 79.5253 190.736 77.4278C190.379 76.4589 189.833 75.5709 189.129 74.8157C188.419 74.0673 187.561 73.4751 186.609 73.0769C184.472 72.2319 182.093 72.2319 179.955 73.0769C179.003 73.4769 178.142 74.0688 177.428 74.8157C176.726 75.5709 176.182 76.4591 175.829 77.4278C175.451 78.4678 175.263 79.5671 175.272 80.6735M173.503 80.6735C173.486 79.3275 173.733 77.9913 174.229 76.74C174.666 75.5717 175.341 74.5068 176.211 73.6129C177.081 72.719 178.127 72.0154 179.283 71.5468C181.836 70.5573 184.667 70.5573 187.22 71.5468C188.376 72.0059 189.425 72.6995 190.3 73.584C191.175 74.4685 191.858 75.5246 192.305 76.6859C193.273 79.2215 193.273 82.0251 192.305 84.5607C191.851 85.7145 191.17 86.7656 190.303 87.6519C189.424 88.5359 188.372 89.2279 187.212 89.6843C184.655 90.6526 181.832 90.6526 179.275 89.6843C178.116 89.2279 177.063 88.5359 176.184 87.6519C175.317 86.7656 174.636 85.7145 174.183 84.5607C173.688 83.3063 173.441 81.9678 173.456 80.6194" fill="#006172"/>
<path d="M197.011 71.3008H199.283L210.798 87.6455H210.844V71.3008H212.614V89.9639H210.342L198.827 73.6192H198.773V89.9639H197.011V71.3008Z" fill="#006172"/>
<path d="M233.379 87.0415C232.574 88.1674 231.49 89.0648 230.233 89.6458C229.013 90.1694 227.697 90.4326 226.369 90.4186C225.014 90.4312 223.668 90.1847 222.405 89.6922C221.243 89.2397 220.19 88.5471 219.314 87.6597C218.447 86.7735 217.766 85.7224 217.312 84.5686C216.344 82.0329 216.344 79.2294 217.312 76.6937C217.768 75.5409 218.448 74.4901 219.314 73.6026C220.194 72.7179 221.246 72.0234 222.405 71.5624C223.663 71.0468 225.01 70.7842 226.369 70.7896C227.599 70.777 228.819 71.0027 229.963 71.4542C231.119 71.9387 232.129 72.7165 232.892 73.7107L231.447 74.9008C230.899 74.0525 230.114 73.3835 229.19 72.9766C228.304 72.575 227.342 72.3669 226.369 72.3661C225.23 72.3478 224.099 72.5635 223.046 72.9998C222.094 73.3998 221.233 73.9916 220.519 74.7386C219.815 75.4921 219.271 76.3807 218.92 77.3506C218.168 79.4465 218.168 81.7386 218.92 83.8344C219.271 84.8043 219.815 85.6929 220.519 86.4465C221.233 87.1934 222.094 87.7853 223.046 88.1852C224.099 88.6215 225.23 88.8372 226.369 88.8189C226.874 88.818 227.377 88.761 227.869 88.6489C228.39 88.5316 228.896 88.3526 229.376 88.1157C229.877 87.8752 230.349 87.5769 230.782 87.227C231.236 86.8518 231.632 86.4117 231.957 85.9209L233.379 87.0415Z" fill="#006172"/>
<path d="M238.364 71.3008H236.602V89.9639H238.364V71.3008Z" fill="#006172"/>
<path d="M243.541 71.3008H255.11V72.885H245.303V79.5234H254.492V81.1076H245.303V88.3796H255.535V89.9639H243.541V71.3008Z" fill="#006172"/>
<path d="M261.146 79.5234H264.886C265.653 79.5475 266.417 79.4323 267.143 79.1833C267.647 78.9995 268.108 78.7127 268.495 78.341C268.794 78.0369 269.017 77.6661 269.144 77.2591C269.254 76.9165 269.314 76.5599 269.322 76.2003C269.314 75.8432 269.254 75.4892 269.144 75.1493C269.017 74.7423 268.794 74.3715 268.495 74.0674C268.11 73.6931 267.649 73.4059 267.143 73.225C266.418 72.9727 265.653 72.8574 264.886 72.885H261.146V79.5234ZM259.384 71.3008H264.353H265.365C265.832 71.3245 266.297 71.3787 266.756 71.4631C267.283 71.5532 267.801 71.693 268.302 71.8804C268.83 72.0776 269.314 72.3771 269.727 72.7616C270.139 73.1462 270.472 73.6083 270.705 74.1215C270.991 74.7681 271.128 75.4705 271.107 76.1771C271.136 76.9441 270.974 77.7062 270.636 78.3951C270.352 78.9443 269.951 79.4244 269.461 79.8016C268.998 80.1618 268.475 80.4366 267.915 80.613C267.382 80.7759 266.837 80.8973 266.285 80.9762L271.787 89.9407H269.786L264.469 81.0844H261.184V89.9639H259.422L259.384 71.3008Z" fill="#006172"/>
<path d="M290.821 88.7492C289.751 89.367 288.594 89.8203 287.39 90.0939C286.201 90.3508 284.989 90.4803 283.773 90.4803C282.415 90.4935 281.066 90.2469 279.801 89.7538C278.641 89.2974 277.588 88.6054 276.71 87.7214C275.846 86.8326 275.166 85.7821 274.708 84.6302C273.75 82.0927 273.75 79.2928 274.708 76.7554C275.167 75.604 275.847 74.5537 276.71 73.6642C277.592 72.7832 278.644 72.0893 279.801 71.624C281.061 71.1077 282.411 70.8451 283.773 70.8512C285.019 70.7948 286.264 70.9925 287.432 71.4323C288.6 71.872 289.666 72.5446 290.566 73.4092L289.283 74.7229C288.977 74.3699 288.63 74.0558 288.247 73.7878C287.82 73.4829 287.361 73.2238 286.88 73.015C286.38 72.8094 285.862 72.6491 285.334 72.5359C284.826 72.4291 284.308 72.3722 283.788 72.3659C282.647 72.3474 281.513 72.5631 280.458 72.9996C279.507 73.3997 278.65 73.9916 277.938 74.7384C277.234 75.4935 276.688 76.3815 276.331 77.3504C275.589 79.448 275.589 81.7366 276.331 83.8342C276.688 84.8031 277.234 85.6911 277.938 86.4463C278.65 87.193 279.507 87.7849 280.458 88.185C281.513 88.6215 282.647 88.8372 283.788 88.8187C284.747 88.8245 285.704 88.7443 286.648 88.5792C287.492 88.4527 288.308 88.1808 289.059 87.7755V81.4772H284.515V79.9316H290.821V88.7492Z" fill="#006172"/>
<path d="M296.006 71.3008H307.567V72.885H297.768V79.5234H306.957V81.1076H297.768V88.3796H308V89.9639H296.006V71.3008Z" fill="#006172"/>
<path d="M98.6183 42.877H89.7466V78.9512H98.6183V42.877Z" fill="#006172"/>
<path d="M99.3216 42.8848H90.2412L100.04 63.9744H110.079L106.965 57.1274L99.3216 42.8848Z" fill="#00A69C"/>
<path d="M111.292 54.9785L100.041 63.9739H111.347L111.292 54.9785Z" fill="#006172"/>
<path d="M69.8858 76.5245C68.2185 71.1055 67.6481 65.4084 68.2081 59.7664C68.768 54.1244 70.4471 48.6507 73.147 43.6651C75.8851 38.5587 79.6135 34.0493 84.1143 30.4003C88.6151 26.7513 93.7981 24.0361 99.3604 22.4132C103.519 21.1752 107.835 20.5453 112.173 20.543C123.759 20.5345 134.881 25.0907 143.132 33.2246L137.946 38.6342C133.244 34.0077 127.39 30.7237 120.991 29.1229C114.592 27.5221 107.881 27.6629 101.555 29.5306C96.9486 30.8755 92.6563 33.125 88.929 36.1476C85.2018 39.1703 82.1144 42.9055 79.8472 47.135C77.6077 51.2705 76.2151 55.811 75.7507 60.4909C75.2863 65.1709 75.7594 69.8965 77.1424 74.3915C82.9384 93.3946 103.309 104.206 122.552 98.4951C128.127 96.8433 133.228 93.8838 137.428 89.863L142.838 95.1103C137.743 100.003 131.55 103.605 124.778 105.613C101.493 112.506 76.8797 99.4688 69.8858 76.5245Z" fill="url(#paint0_linear_981_5300)"/>
<path d="M134.059 46.5859C129.268 41.7405 121.694 38.7266 114.283 38.7266H112.985C112.328 38.7266 112.212 38.7266 111.756 38.7266H111.347V47.0882H111.81C112.8 47.0187 113.085 47.011 114.252 47.011C124.407 47.011 132.985 55.1099 132.985 64.6848C132.985 72.4128 126.494 79.5921 120.62 81.1764L120.303 81.2614V89.994L120.79 89.9322C132.266 88.4484 141.3 77.351 141.416 64.6462C141.454 61.2977 140.822 57.9754 139.559 54.8741C138.296 51.7728 136.426 48.955 134.059 46.5859V46.5859Z" fill="url(#paint1_linear_981_5300)"/>
<path d="M111.277 89.9631H120.38V54.9785H111.277V89.9631Z" fill="#00A69C"/>
<path d="M154.956 38.666H163.51L169.415 55.1962H169.492L175.435 38.666H183.951V63.9983H178.302V44.5702H178.225L171.486 63.9983H167.166L160.682 44.5702H160.605V63.9983H154.956V38.666Z" fill="url(#paint2_linear_981_5300)"/>
<path d="M193.194 58.8497H196.13C197.355 58.8587 198.576 58.7264 199.77 58.4556C200.822 58.2229 201.816 57.7785 202.691 57.1496C203.528 56.5221 204.194 55.696 204.631 54.7462C205.132 53.6053 205.372 52.3671 205.334 51.1217C205.364 50.0015 205.123 48.8906 204.631 47.8837C204.184 46.9748 203.534 46.1814 202.73 45.5653C201.882 44.9511 200.929 44.498 199.917 44.2284C198.812 43.9245 197.67 43.7737 196.524 43.7801H193.194V58.8497ZM187.537 38.6642H196.038C198.008 38.6571 199.972 38.8854 201.888 39.3443C203.63 39.7502 205.275 40.4989 206.725 41.5468C208.123 42.5812 209.25 43.9388 210.01 45.5035C210.868 47.3502 211.284 49.372 211.223 51.4077C211.26 53.2779 210.857 55.1306 210.048 56.8172C209.29 58.3342 208.212 59.6684 206.888 60.7276C205.509 61.8198 203.935 62.6406 202.251 63.1465C200.48 63.6987 198.634 63.9749 196.779 63.9656H187.506L187.537 38.6642Z" fill="url(#paint3_linear_981_5300)"/>
<defs>
<linearGradient id="paint0_linear_981_5300" x1="105.566" y1="107.46" x2="105.566" y2="20.543" gradientUnits="userSpaceOnUse">
<stop offset="0.06" stop-color="#006172"/>
<stop offset="0.41" stop-color="#00A69C"/>
</linearGradient>
<linearGradient id="paint1_linear_981_5300" x1="126.393" y1="89.9631" x2="126.393" y2="38.7266" gradientUnits="userSpaceOnUse">
<stop offset="0.17" stop-color="#006172"/>
<stop offset="0.5" stop-color="#00A69C"/>
</linearGradient>
<linearGradient id="paint2_linear_981_5300" x1="169.453" y1="63.9983" x2="169.453" y2="38.666" gradientUnits="userSpaceOnUse">
<stop offset="0.06" stop-color="#006172"/>
<stop offset="0.24" stop-color="#008185"/>
<stop offset="0.41" stop-color="#009994"/>
<stop offset="0.56" stop-color="#00A79C"/>
<stop offset="0.7" stop-color="#00AC9F"/>
</linearGradient>
<linearGradient id="paint3_linear_981_5300" x1="199.407" y1="63.9965" x2="199.407" y2="38.6642" gradientUnits="userSpaceOnUse">
<stop offset="0.06" stop-color="#006172"/>
<stop offset="0.24" stop-color="#008185"/>
<stop offset="0.41" stop-color="#009994"/>
<stop offset="0.56" stop-color="#00A79C"/>
<stop offset="0.7" stop-color="#00AC9F"/>
</linearGradient>
</defs>
</svg>
