<svg width="376" height="128" viewBox="0 0 376 128" fill="none" xmlns="http://www.w3.org/2000/svg">
<g clip-path="url(#clip0_981_5301)">
<path d="M82.8382 33.8525C80.612 34.9321 80.0395 36.0751 79.3397 40.3299C79.0854 42.108 77.7494 44.3941 73.0422 49.0935C67.4446 54.6183 66.8085 55.0628 63.7552 55.5708C58.8573 56.3329 59.0323 56.571 57.6328 63.4295C57.4421 64.3819 53.6412 67.9541 50.2063 71.3199C44.6086 76.7814 44.0361 77.1623 41.6189 77.1623C35.6396 77.1623 32.5227 83.7667 36.5937 87.7673C40.1559 91.3237 46.0716 89.2915 46.9622 84.2112C47.153 82.9409 47.5983 81.1629 47.9799 80.2103C48.9341 77.6704 58.73 68.3986 60.9563 67.9541C66.9359 65.0965 69.0827 64.6044 69.0827 60.0954C69.0827 58.3809 70.4343 57.603 75.7139 52.2051C81.6934 46.1722 82.1387 45.8546 85.4462 45.3467C89.6445 44.7116 91.7437 42.6795 91.7437 39.3138C91.7437 36.2656 90.7896 34.678 88.2452 33.5984C85.5099 32.4554 85.5099 32.4554 82.8382 33.8525Z" fill="#12324F"/>
<path d="M58.9869 34.9323C58.0965 35.7579 57.3968 37.2185 57.3968 38.1075C57.3968 41.1557 55.6157 43.8229 50.018 49.2842C44.9292 54.1741 44.0386 54.809 41.3034 55.1902C37.0415 55.8251 34.9424 57.7939 34.9424 61.1595C34.9424 64.2076 35.8965 65.6048 38.8226 66.8112C42.9573 68.526 47.2191 64.9063 47.2191 59.6354C47.2191 58.3019 48.6185 56.4602 53.1348 51.8879C58.7961 46.1725 59.305 45.8551 62.5491 45.347C67.129 44.6485 69.8007 41.9178 69.2282 38.552C68.7193 35.1863 66.6201 33.3447 63.3124 33.3447C61.2134 33.3447 60.132 33.7258 58.9869 34.9323Z" fill="#3A82C3"/>
<path d="M84.7473 55.4435C81.2488 56.3325 80.1674 57.8565 79.3406 62.6829C79.0223 64.5881 77.8776 66.1121 73.234 70.6207C67.1274 76.5903 66.6822 76.8442 62.8656 77.4793C59.4306 78.051 57.395 80.2735 57.395 83.5121C57.395 87.6401 60.0031 89.672 64.7103 89.2911C66.6822 89.1004 69.481 85.6715 69.481 83.4486C69.481 80.5277 70.8169 78.559 76.6052 72.9707C81.4397 68.2711 82.1392 67.7631 85.1292 67.3821C89.9634 66.7473 92.5077 63.699 91.49 59.6982C90.7905 56.8405 87.3557 54.6815 84.7473 55.4435Z" fill="#3A82C3"/>
<path d="M40.9405 45.5686C44.4975 45.5686 47.3811 42.6898 47.3811 39.1388C47.3811 35.5877 44.4975 32.709 40.9405 32.709C37.3835 32.709 34.5 35.5877 34.5 39.1388C34.5 42.6898 37.3835 45.5686 40.9405 45.5686Z" fill="#12324F"/>
<path d="M85.7857 89.3861C89.3427 89.3861 92.2261 86.5074 92.2261 82.9564C92.2261 79.4051 89.3427 76.5264 85.7857 76.5264C82.2286 76.5264 79.3452 79.4051 79.3452 82.9564C79.3452 86.5074 82.2286 89.3861 85.7857 89.3861Z" fill="#12324F"/>
<path d="M40.4634 67.4784C43.757 67.4784 46.4269 64.8128 46.4269 61.5248C46.4269 58.2368 43.757 55.5713 40.4634 55.5713C37.1699 55.5713 34.5 58.2368 34.5 61.5248C34.5 64.8128 37.1699 67.4784 40.4634 67.4784Z" fill="#3A82C3"/>
<path d="M63.839 44.616C67.1325 44.616 69.8024 41.9505 69.8024 38.6625C69.8024 35.3745 67.1325 32.709 63.839 32.709C60.5454 32.709 57.8755 35.3745 57.8755 38.6625C57.8755 41.9505 60.5454 44.616 63.839 44.616Z" fill="#3A82C3"/>
<path d="M63.3644 45.5686C66.9214 45.5686 69.8049 42.6898 69.8049 39.1388C69.8049 35.5877 66.9214 32.709 63.3644 32.709C59.8074 32.709 56.9238 35.5877 56.9238 39.1388C56.9238 42.6898 59.8074 45.5686 63.3644 45.5686Z" fill="#3A82C3"/>
<path d="M63.1258 89.8628C66.5511 89.8628 69.3278 87.0908 69.3278 83.6713C69.3278 80.2515 66.5511 77.4795 63.1258 77.4795C59.7006 77.4795 56.9238 80.2515 56.9238 83.6713C56.9238 87.0908 59.7006 89.8628 63.1258 89.8628Z" fill="#3A82C3"/>
<path d="M85.7857 67.4776C89.3427 67.4776 92.2261 64.599 92.2261 61.0479C92.2261 57.4969 89.3427 54.6182 85.7857 54.6182C82.2286 54.6182 79.3452 57.4969 79.3452 61.0479C79.3452 64.599 82.2286 67.4776 85.7857 67.4776Z" fill="#3A82C3"/>
<path d="M40.9405 89.3864C44.234 89.3864 46.9039 86.7211 46.9039 83.4331C46.9039 80.1451 44.234 77.4795 40.9405 77.4795C37.647 77.4795 34.9771 80.1451 34.9771 83.4331C34.9771 86.7211 37.647 89.3864 40.9405 89.3864Z" fill="#12324F"/>
<path d="M63.8419 67.4776C67.3989 67.4776 70.2824 64.599 70.2824 61.0479C70.2824 57.4969 67.3989 54.6182 63.8419 54.6182C60.2849 54.6182 57.4014 57.4969 57.4014 61.0479C57.4014 64.599 60.2849 67.4776 63.8419 67.4776Z" fill="#12324F"/>
<path d="M85.7857 45.5686C89.3427 45.5686 92.2261 42.6898 92.2261 39.1388C92.2261 35.5877 89.3427 32.709 85.7857 32.709C82.2286 32.709 79.3452 35.5877 79.3452 39.1388C79.3452 42.6898 82.2286 45.5686 85.7857 45.5686Z" fill="#12324F"/>
<path d="M105.351 49.7698H119.804C123.644 49.7698 126.593 50.6941 128.651 52.5426C130.708 54.3912 131.737 57.0955 131.737 60.6558C131.737 63.2917 131.034 65.5339 129.628 67.3823C128.222 69.197 126.233 70.4292 123.662 71.0796L131.582 85.6626H126.131L118.467 71.4903H110.597V85.6626H105.351V49.7698ZM118.93 67.0743C121.227 67.0743 123.044 66.5437 124.382 65.4825C125.753 64.387 126.439 62.7782 126.439 60.6558C126.439 58.3279 125.771 56.6677 124.433 55.6749C123.13 54.6821 121.296 54.1858 118.93 54.1858H110.597V67.0743H118.93ZM138.201 49.7698H154.711C157.9 49.7698 160.369 50.5914 162.118 52.2345C163.867 53.8777 164.741 56.2739 164.741 59.4234C164.741 61.2034 164.312 62.7782 163.455 64.1474C162.632 65.4825 161.535 66.4755 160.163 67.1255C164.004 68.2553 165.924 71.0454 165.924 75.4956C165.924 77.5837 165.461 79.3981 164.535 80.9386C163.644 82.445 162.409 83.6085 160.832 84.4304C159.255 85.2518 157.506 85.6626 155.586 85.6626H138.201V49.7698ZM154.043 65.1745C155.723 65.1745 157.043 64.7123 158.003 63.788C158.963 62.8638 159.443 61.4945 159.443 59.6801C159.443 57.592 158.963 56.1371 158.003 55.3154C157.077 54.4597 155.637 54.0318 153.682 54.0318H143.447V65.1745H154.043ZM154.403 81.4005C156.426 81.4005 157.969 80.9557 159.032 80.0656C160.095 79.1755 160.626 77.6524 160.626 75.4956C160.626 73.3388 160.06 71.7983 158.929 70.874C157.832 69.9498 156.169 69.4879 153.94 69.4879H143.447V81.4005H154.403ZM184.34 86.4328C181.871 86.4328 179.642 85.9022 177.653 84.8411C175.699 83.7454 174.155 82.2224 173.024 80.2711C171.927 78.2857 171.378 75.992 171.378 73.3904C171.378 70.8228 171.927 68.5462 173.024 66.5608C174.155 64.5754 175.699 63.0349 177.653 61.9394C179.642 60.8098 181.871 60.2449 184.34 60.2449C188.797 60.2449 192.175 61.5972 194.472 64.3015V47.7158H199.667V85.6626H194.627V82.0684C193.255 83.5744 191.746 84.6871 190.1 85.4058C188.489 86.0907 186.568 86.4328 184.34 86.4328ZM185.523 82.3248C187.649 82.3248 189.5 81.7771 191.078 80.6818C192.689 79.5521 193.821 78.0457 194.472 76.1631V70.6173C193.889 68.7347 192.775 67.2283 191.129 66.0989C189.517 64.9691 187.649 64.4042 185.523 64.4042C183.842 64.4042 182.316 64.7808 180.945 65.5339C179.608 66.287 178.545 67.3481 177.756 68.7176C177.001 70.0867 176.624 71.6443 176.624 73.3904C176.624 75.1361 177.001 76.6936 177.756 78.0631C178.545 79.4322 179.608 80.4937 180.945 81.2465C182.316 81.9656 183.842 82.3248 185.523 82.3248ZM210.2 56.1884C209.342 56.1884 208.622 55.8975 208.04 55.3154C207.457 54.7334 207.166 54.0146 207.166 53.1588C207.166 52.3031 207.457 51.5842 208.04 51.0021C208.622 50.4201 209.342 50.1292 210.2 50.1292C211.091 50.1292 211.828 50.4201 212.412 51.0021C213.029 51.5842 213.338 52.3031 213.338 53.1588C213.338 54.0146 213.029 54.7334 212.412 55.3154C211.828 55.8975 211.091 56.1884 210.2 56.1884ZM207.577 61.0152H212.875V85.6626H207.577V61.0152ZM233.738 97.4728C232.057 97.4728 230.411 97.3359 228.8 97.0621C227.222 96.7883 225.885 96.3946 224.789 95.8811V91.6191C227.36 92.783 230.343 93.3648 233.738 93.3648C236.927 93.3648 239.242 92.6631 240.682 91.2595C242.156 89.8904 242.893 87.8023 242.893 84.9951V82.3763C240.63 85.0808 237.303 86.4328 232.915 86.4328C230.411 86.4328 228.166 85.8852 226.177 84.7895C224.187 83.6942 222.628 82.1537 221.497 80.1683C220.365 78.183 219.799 75.9063 219.799 73.3388C219.799 70.7371 220.347 68.4609 221.445 66.5096C222.577 64.5241 224.12 62.9836 226.074 61.8881C228.063 60.7926 230.292 60.2449 232.761 60.2449C235.058 60.2449 236.994 60.5872 238.573 61.2719C240.183 61.9223 241.675 63.0178 243.048 64.5582V61.0152H248.088V84.4304C248.088 88.6408 246.905 91.8587 244.539 94.0838C242.207 96.343 238.607 97.4728 233.738 97.4728ZM233.944 82.3248C236.069 82.3248 237.938 81.7601 239.55 80.6303C241.196 79.5009 242.31 77.9945 242.893 76.1119V70.5661C242.241 68.649 241.109 67.143 239.499 66.0473C237.92 64.9519 236.069 64.4042 233.944 64.4042C232.262 64.4042 230.737 64.7808 229.366 65.5339C228.029 66.2529 226.965 67.2969 226.177 68.666C225.422 70.0355 225.045 71.5931 225.045 73.3388C225.045 75.119 225.422 76.6936 226.177 78.0631C226.965 79.3981 228.029 80.4422 229.366 81.1953C230.737 81.9482 232.262 82.3248 233.944 82.3248ZM258.621 56.1884C257.763 56.1884 257.043 55.8975 256.461 55.3154C255.877 54.7334 255.586 54.0146 255.586 53.1588C255.586 52.3031 255.877 51.5842 256.461 51.0021C257.043 50.4201 257.763 50.1292 258.621 50.1292C259.512 50.1292 260.249 50.4201 260.833 51.0021C261.45 51.5842 261.758 52.3031 261.758 53.1588C261.758 54.0146 261.45 54.7334 260.833 55.3154C260.249 55.8975 259.512 56.1884 258.621 56.1884ZM255.998 61.0152H261.296V85.6626H255.998V61.0152ZM278.764 86.4328C276.26 86.4328 274.323 85.7141 272.952 84.2764C271.615 82.8383 270.946 80.8017 270.946 78.1655V65.0204H267.191V61.0152H270.946V53.6209H276.193V61.0152H282.262V65.0204H276.193V77.8064C276.193 79.4493 276.501 80.6132 277.118 81.2981C277.769 81.9827 278.934 82.3248 280.616 82.3248C281.609 82.3248 282.604 82.1025 283.599 81.6573V85.7653C282.295 86.2102 280.683 86.4328 278.764 86.4328ZM297.384 86.4328C294.4 86.4328 291.999 85.6796 290.183 84.1736C288.398 82.6331 287.508 80.562 287.508 77.9603C287.508 75.2218 288.365 73.1162 290.08 71.6443C291.828 70.1383 294.298 69.3851 297.487 69.3851C300.881 69.3851 303.761 70.0696 306.127 71.4391V70.1553C306.127 68.2041 305.526 66.7664 304.327 65.8421C303.16 64.8835 301.309 64.4042 298.772 64.4042C297.263 64.4042 295.789 64.5582 294.349 64.8664C292.942 65.1402 291.674 65.5339 290.543 66.0473V61.8368C291.571 61.3574 292.909 60.981 294.555 60.7071C296.2 60.399 297.795 60.2449 299.338 60.2449C303.417 60.2449 306.436 61.152 308.39 62.9665C310.379 64.7465 311.374 67.2283 311.374 70.4121V85.6626H306.487V82.8898C305.423 84.0538 304.155 84.9439 302.681 85.5598C301.241 86.1419 299.475 86.4328 297.384 86.4328ZM298.669 82.4791C300.315 82.4791 301.807 82.1537 303.144 81.5033C304.481 80.8529 305.475 79.9457 306.127 78.7818V75.4444C303.898 74.0063 301.411 73.2876 298.669 73.2876C296.679 73.2876 295.188 73.6812 294.195 74.4686C293.233 75.2218 292.755 76.3857 292.755 77.9603C292.755 80.9727 294.725 82.4791 298.669 82.4791ZM318.624 47.7158H323.819V85.6626H318.624V47.7158Z" fill="#12324F"/>
</g>
<defs>
<clipPath id="clip0_981_5301">
<rect width="307" height="69" fill="white" transform="translate(34.5 29.5)"/>
</clipPath>
</defs>
</svg>
